STARTFONT 2.3
FONT -FontForge-Shadows Into Light-Book-R-Normal--9-90-72-72-P-36-ISO10646-1
SIZE 9 72 72  4
FONTBOUNDINGBOX 14 15 -2 -4
COMMENT "Generated by fontforge, http://fontforge.sourceforge.net"
COMMENT "Copyright (c) 2010, Kimberly Geswein (kimberlygeswein.com)"
STARTPROPERTIES 40
FOUNDRY "FontForge"
FAMILY_NAME "Shadows Into Light"
WEIGHT_NAME "Book"
SLANT "R"
SETWIDTH_NAME "Normal"
ADD_STYLE_NAME ""
PIXEL_SIZE 9
POINT_SIZE 90
RESOLUTION_X 72
RESOLUTION_Y 72
SPACING "P"
AVERAGE_WIDTH 36
CHARSET_REGISTRY "ISO10646"
CHARSET_ENCODING "1"
FONTNAME_REGISTRY ""
CHARSET_COLLECTIONS "ISO8859-2 ISO8859-9 ISO8859-4 ISO10646-1"
BITS_PER_PIXEL 4
FONT_NAME "ShadowsIntoLight"
FACE_NAME "Shadows Into Light"
COPYRIGHT "Copyright (c) 2010, Kimberly Geswein (kimberlygeswein.com)"
FONT_VERSION "001.000"
FONT_ASCENT 7
FONT_DESCENT 2
UNDERLINE_POSITION 0
UNDERLINE_THICKNESS 0
X_HEIGHT 5
CAP_HEIGHT 6
RAW_ASCENT 799
RAW_DESCENT 200
NORM_SPACE 4
RELATIVE_WEIGHT 40
RELATIVE_SETWIDTH 50
SUPERSCRIPT_X 0
SUPERSCRIPT_Y 4
SUPERSCRIPT_SIZE 5
SUBSCRIPT_X 0
SUBSCRIPT_Y 1
SUBSCRIPT_SIZE 5
AVG_LOWERCASE_WIDTH 32
AVG_UPPERCASE_WIDTH 42
ENDPROPERTIES
CHARS 352
STARTCHAR space
ENCODING 32
SWIDTH 450 0
DWIDTH 4 0
BBX 1 1 0 0
BITMAP
00
ENDCHAR
STARTCHAR exclam
ENCODING 33
SWIDTH 137 0
DWIDTH 1 0
BBX 1 8 0 0
BITMAP
30
60
60
70
70
00
00
20
ENDCHAR
STARTCHAR quotedbl
ENCODING 34
SWIDTH 212 0
DWIDTH 2 0
BBX 2 3 0 4
BITMAP
65
65
21
ENDCHAR
STARTCHAR numbersign
ENCODING 35
SWIDTH 450 0
DWIDTH 4 0
BBX 4 5 0 1
BITMAP
0140
0792
3A83
09B2
3850
ENDCHAR
STARTCHAR dollar
ENCODING 36
SWIDTH 445 0
DWIDTH 4 0
BBX 4 8 0 -1
BITMAP
0420
0770
6820
9771
0346
03A2
0370
0060
ENDCHAR
STARTCHAR percent
ENCODING 37
SWIDTH 450 0
DWIDTH 4 0
BBX 4 7 0 0
BITMAP
1170
8570
7450
0524
0629
0514
0400
ENDCHAR
STARTCHAR ampersand
ENCODING 38
SWIDTH 356 0
DWIDTH 3 0
BBX 3 4 0 1
BITMAP
0500
3860
5B20
5710
ENDCHAR
STARTCHAR quotesingle
ENCODING 39
SWIDTH 155 0
DWIDTH 1 0
BBX 1 3 0 3
BITMAP
40
80
50
ENDCHAR
STARTCHAR parenleft
ENCODING 40
SWIDTH 291 0
DWIDTH 3 0
BBX 3 8 0 0
BITMAP
0020
0610
2500
6000
7000
7000
7000
2710
ENDCHAR
STARTCHAR parenright
ENCODING 41
SWIDTH 241 0
DWIDTH 2 0
BBX 2 7 0 0
BITMAP
50
16
06
05
06
07
23
ENDCHAR
STARTCHAR asterisk
ENCODING 42
SWIDTH 481 0
DWIDTH 4 0
BBX 4 5 0 0
BITMAP
0622
5A96
5CB2
4743
0020
ENDCHAR
STARTCHAR plus
ENCODING 43
SWIDTH 466 0
DWIDTH 4 0
BBX 4 4 0 1
BITMAP
0600
0635
5A40
0510
ENDCHAR
STARTCHAR comma
ENCODING 44
SWIDTH 112 0
DWIDTH 1 0
BBX 1 2 0 -1
BITMAP
80
60
ENDCHAR
STARTCHAR hyphen
ENCODING 45
SWIDTH 399 0
DWIDTH 4 0
BBX 4 2 0 1
BITMAP
1683
4200
ENDCHAR
STARTCHAR period
ENCODING 46
SWIDTH 128 0
DWIDTH 1 0
BBX 1 1 0 0
BITMAP
40
ENDCHAR
STARTCHAR slash
ENCODING 47
SWIDTH 306 0
DWIDTH 3 0
BBX 3 8 0 -1
BITMAP
0020
0240
0600
0600
1500
5100
6000
4000
ENDCHAR
STARTCHAR zero
ENCODING 48
SWIDTH 308 0
DWIDTH 3 0
BBX 3 5 0 0
BITMAP
2610
5050
6050
5050
3820
ENDCHAR
STARTCHAR one
ENCODING 49
SWIDTH 112 0
DWIDTH 1 0
BBX 1 6 0 0
BITMAP
30
60
60
60
60
50
ENDCHAR
STARTCHAR two
ENCODING 50
SWIDTH 512 0
DWIDTH 5 0
BBX 5 6 0 0
BITMAP
001000
377000
307000
006000
062320
096300
ENDCHAR
STARTCHAR three
ENCODING 51
SWIDTH 461 0
DWIDTH 4 0
BBX 4 7 0 0
BITMAP
0010
6680
1350
2C56
1107
0045
0460
ENDCHAR
STARTCHAR four
ENCODING 52
SWIDTH 503 0
DWIDTH 5 0
BBX 5 7 0 0
BITMAP
007300
01C300
075300
367820
745300
004300
004200
ENDCHAR
STARTCHAR five
ENCODING 53
SWIDTH 478 0
DWIDTH 4 0
BBX 4 7 0 0
BITMAP
0002
A654
8000
8692
6242
0080
0520
ENDCHAR
STARTCHAR six
ENCODING 54
SWIDTH 375 0
DWIDTH 3 0
BBX 4 8 0 0
BITMAP
0200
2500
4200
6000
6161
7751
8460
6A20
ENDCHAR
STARTCHAR seven
ENCODING 55
SWIDTH 458 0
DWIDTH 4 0
BBX 4 7 0 0
BITMAP
1577
3327
0052
0060
0060
0070
0080
ENDCHAR
STARTCHAR eight
ENCODING 56
SWIDTH 333 0
DWIDTH 3 0
BBX 3 7 0 0
BITMAP
0210
4870
7050
6330
0C00
1440
3750
ENDCHAR
STARTCHAR nine
ENCODING 57
SWIDTH 475 0
DWIDTH 4 0
BBX 4 6 0 0
BITMAP
0788
6297
8926
4106
0007
0006
ENDCHAR
STARTCHAR colon
ENCODING 58
SWIDTH 120 0
DWIDTH 1 0
BBX 1 3 0 1
BITMAP
30
00
30
ENDCHAR
STARTCHAR semicolon
ENCODING 59
SWIDTH 121 0
DWIDTH 1 0
BBX 1 4 0 -1
BITMAP
30
00
80
60
ENDCHAR
STARTCHAR less
ENCODING 60
SWIDTH 409 0
DWIDTH 4 0
BBX 4 5 0 1
BITMAP
0014
0291
4600
3920
0173
ENDCHAR
STARTCHAR equal
ENCODING 61
SWIDTH 433 0
DWIDTH 4 0
BBX 4 4 0 0
BITMAP
0011
4751
3664
2000
ENDCHAR
STARTCHAR greater
ENCODING 62
SWIDTH 450 0
DWIDTH 4 0
BBX 4 5 0 1
BITMAP
5700
0283
0044
0660
5400
ENDCHAR
STARTCHAR question
ENCODING 63
SWIDTH 445 0
DWIDTH 4 0
BBX 4 9 0 0
BITMAP
0131
7748
0016
0191
0810
0850
0000
0000
0310
ENDCHAR
STARTCHAR at
ENCODING 64
SWIDTH 945 0
DWIDTH 9 0
BBX 9 9 0 0
BITMAP
0000010000
0017766000
0170203400
0717A00600
4363A00600
8276366100
8150000110
7200004710
0776663000
ENDCHAR
STARTCHAR A
ENCODING 65
SWIDTH 390 0
DWIDTH 4 0
BBX 5 7 0 0
BITMAP
150000
4B0000
563000
717410
85C210
816100
501400
ENDCHAR
STARTCHAR B
ENCODING 66
SWIDTH 537 0
DWIDTH 5 0
BBX 5 7 0 0
BITMAP
026300
962500
718520
6B4160
350710
158200
062000
ENDCHAR
STARTCHAR C
ENCODING 67
SWIDTH 487 0
DWIDTH 4 0
BBX 5 7 0 0
BITMAP
027000
071100
330000
700000
700410
701800
677000
ENDCHAR
STARTCHAR D
ENCODING 68
SWIDTH 554 0
DWIDTH 5 0
BBX 5 7 0 0
BITMAP
152000
794650
160060
070150
060800
068200
063000
ENDCHAR
STARTCHAR E
ENCODING 69
SWIDTH 474 0
DWIDTH 4 0
BBX 4 7 0 0
BITMAP
3042
8830
7001
6561
6501
5355
5820
ENDCHAR
STARTCHAR F
ENCODING 70
SWIDTH 428 0
DWIDTH 4 0
BBX 4 7 0 0
BITMAP
0002
8672
9100
9013
9650
8100
6000
ENDCHAR
STARTCHAR G
ENCODING 71
SWIDTH 591 0
DWIDTH 5 0
BBX 6 7 0 -1
BITMAP
007500
061000
250681
600390
701970
688170
000070
ENDCHAR
STARTCHAR H
ENCODING 72
SWIDTH 424 0
DWIDTH 4 0
BBX 4 6 0 0
BITMAP
6061
7042
7084
9745
7006
6006
ENDCHAR
STARTCHAR I
ENCODING 73
SWIDTH 153 0
DWIDTH 1 0
BBX 2 7 0 0
BITMAP
50
60
61
51
52
52
42
ENDCHAR
STARTCHAR J
ENCODING 74
SWIDTH 371 0
DWIDTH 3 0
BBX 3 8 0 -1
BITMAP
0020
0070
0070
0080
0070
1060
5060
1540
ENDCHAR
STARTCHAR K
ENCODING 75
SWIDTH 524 0
DWIDTH 5 0
BBX 5 6 0 0
BITMAP
701300
608000
662000
580000
4A6640
150000
ENDCHAR
STARTCHAR L
ENCODING 76
SWIDTH 537 0
DWIDTH 5 0
BBX 5 6 0 0
BITMAP
500000
900000
900000
900000
902750
886000
ENDCHAR
STARTCHAR M
ENCODING 77
SWIDTH 682 0
DWIDTH 6 0
BBX 6 7 0 0
BITMAP
830061
680093
634164
608615
623906
630007
540008
ENDCHAR
STARTCHAR N
ENCODING 78
SWIDTH 541 0
DWIDTH 5 0
BBX 5 7 0 0
BITMAP
000510
710530
980430
736340
615640
430950
240140
ENDCHAR
STARTCHAR O
ENCODING 79
SWIDTH 382 0
DWIDTH 3 0
BBX 4 6 0 0
BITMAP
0991
5244
7034
7052
7080
6930
ENDCHAR
STARTCHAR P
ENCODING 80
SWIDTH 508 0
DWIDTH 5 0
BBX 5 8 0 0
BITMAP
002100
794830
620530
527500
592000
440000
340000
230000
ENDCHAR
STARTCHAR Q
ENCODING 81
SWIDTH 512 0
DWIDTH 5 0
BBX 5 7 0 0
BITMAP
096500
550500
700410
603420
604900
700B00
277620
ENDCHAR
STARTCHAR R
ENCODING 82
SWIDTH 503 0
DWIDTH 5 0
BBX 5 8 0 0
BITMAP
100000
967820
910710
746000
950000
778100
601730
500000
ENDCHAR
STARTCHAR S
ENCODING 83
SWIDTH 541 0
DWIDTH 5 0
BBX 5 7 0 0
BITMAP
005500
171100
700000
700000
255630
000550
067200
ENDCHAR
STARTCHAR T
ENCODING 84
SWIDTH 595 0
DWIDTH 5 0
BBX 7 7 0 0
BITMAP
00123410
67894200
00160000
00070000
00070000
00080000
00070000
ENDCHAR
STARTCHAR U
ENCODING 85
SWIDTH 450 0
DWIDTH 4 0
BBX 4 7 0 -1
BITMAP
3004
800A
801A
7049
7076
4746
0006
ENDCHAR
STARTCHAR V
ENCODING 86
SWIDTH 524 0
DWIDTH 5 0
BBX 5 7 0 0
BITMAP
000030
200350
800620
360800
090800
047700
00A300
ENDCHAR
STARTCHAR W
ENCODING 87
SWIDTH 878 0
DWIDTH 8 0
BBX 8 8 0 -1
BITMAP
00000004
40024025
71059061
35067170
09162570
09620850
05B00210
00100000
ENDCHAR
STARTCHAR X
ENCODING 88
SWIDTH 461 0
DWIDTH 4 0
BBX 4 7 0 0
BITMAP
0001
5106
1761
0770
0870
3561
5016
ENDCHAR
STARTCHAR Y
ENCODING 89
SWIDTH 483 0
DWIDTH 4 0
BBX 5 7 0 0
BITMAP
000410
500600
550700
079300
00A000
017000
043000
ENDCHAR
STARTCHAR Z
ENCODING 90
SWIDTH 670 0
DWIDTH 6 0
BBX 6 7 0 0
BITMAP
122220
2446C0
000920
006400
046000
280000
AA9986
ENDCHAR
STARTCHAR bracketleft
ENCODING 91
SWIDTH 470 0
DWIDTH 4 0
BBX 4 11 0 -1
BITMAP
9662
7000
6000
6000
6000
5100
4300
3300
1400
1501
1A64
ENDCHAR
STARTCHAR backslash
ENCODING 92
SWIDTH 554 0
DWIDTH 5 0
BBX 5 9 0 0
BITMAP
800000
250000
070000
035000
008000
004400
000900
000540
000090
ENDCHAR
STARTCHAR bracketright
ENCODING 93
SWIDTH 512 0
DWIDTH 5 0
BBX 5 12 0 -1
BITMAP
576800
100900
000800
000800
000700
000700
000710
000610
000520
000530
000450
007930
ENDCHAR
STARTCHAR asciicircum
ENCODING 94
SWIDTH 390 0
DWIDTH 4 0
BBX 4 3 0 6
BITMAP
0300
1860
6043
ENDCHAR
STARTCHAR underscore
ENCODING 95
SWIDTH 612 0
DWIDTH 6 0
BBX 6 2 0 0
BITMAP
001472
688520
ENDCHAR
STARTCHAR grave
ENCODING 96
SWIDTH 155 0
DWIDTH 1 0
BBX 1 2 0 5
BITMAP
40
40
ENDCHAR
STARTCHAR a
ENCODING 97
SWIDTH 366 0
DWIDTH 3 0
BBX 4 5 0 0
BITMAP
0690
3790
84B0
7960
A241
ENDCHAR
STARTCHAR b
ENCODING 98
SWIDTH 442 0
DWIDTH 4 0
BBX 4 8 0 0
BITMAP
4000
8000
8000
7283
8817
8018
6192
8810
ENDCHAR
STARTCHAR c
ENCODING 99
SWIDTH 390 0
DWIDTH 4 0
BBX 4 6 0 0
BITMAP
0300
5830
7010
7001
6052
5760
ENDCHAR
STARTCHAR d
ENCODING 100
SWIDTH 316 0
DWIDTH 3 0
BBX 3 9 0 -1
BITMAP
0060
0070
0050
1860
8170
7170
6560
9550
0030
ENDCHAR
STARTCHAR e
ENCODING 101
SWIDTH 461 0
DWIDTH 4 0
BBX 4 5 0 0
BITMAP
0781
4781
B602
7028
4760
ENDCHAR
STARTCHAR f
ENCODING 102
SWIDTH 345 0
DWIDTH 3 0
BBX 3 8 0 0
BITMAP
0A50
1810
2600
2770
6920
1600
0800
0700
ENDCHAR
STARTCHAR g
ENCODING 103
SWIDTH 437 0
DWIDTH 4 0
BBX 4 9 0 -4
BITMAP
05A4
2596
6277
8918
4209
0009
0026
0081
1740
ENDCHAR
STARTCHAR h
ENCODING 104
SWIDTH 466 0
DWIDTH 4 0
BBX 4 7 0 0
BITMAP
4000
7000
7044
8588
8908
A508
7008
ENDCHAR
STARTCHAR i
ENCODING 105
SWIDTH 132 0
DWIDTH 1 0
BBX 1 7 0 0
BITMAP
30
10
70
80
70
70
70
ENDCHAR
STARTCHAR j
ENCODING 106
SWIDTH 112 0
DWIDTH 1 0
BBX 3 11 -2 -3
BITMAP
0010
0010
0000
0040
0070
0070
0070
0070
0070
1070
3770
ENDCHAR
STARTCHAR k
ENCODING 107
SWIDTH 428 0
DWIDTH 4 0
BBX 4 8 0 -1
BITMAP
6000
8002
8056
81A0
8920
A700
7375
1000
ENDCHAR
STARTCHAR l
ENCODING 108
SWIDTH 137 0
DWIDTH 1 0
BBX 1 8 0 0
BITMAP
40
60
60
60
60
60
70
60
ENDCHAR
STARTCHAR m
ENCODING 109
SWIDTH 579 0
DWIDTH 5 0
BBX 5 6 0 0
BITMAP
300000
721420
7A7980
77A470
748170
610060
ENDCHAR
STARTCHAR n
ENCODING 110
SWIDTH 483 0
DWIDTH 4 0
BBX 4 6 0 0
BITMAP
1011
71A7
8717
8708
8707
6305
ENDCHAR
STARTCHAR o
ENCODING 111
SWIDTH 266 0
DWIDTH 2 0
BBX 3 5 0 0
BITMAP
6800
6430
7330
7610
8700
ENDCHAR
STARTCHAR p
ENCODING 112
SWIDTH 482 0
DWIDTH 4 0
BBX 5 8 0 -3
BITMAP
515500
971710
804600
886000
830000
600000
600000
300000
ENDCHAR
STARTCHAR q
ENCODING 113
SWIDTH 408 0
DWIDTH 4 0
BBX 4 8 0 -3
BITMAP
0010
0890
6192
7194
5616
0007
0007
0003
ENDCHAR
STARTCHAR r
ENCODING 114
SWIDTH 396 0
DWIDTH 4 0
BBX 4 5 0 0
BITMAP
3172
6810
6700
5800
3700
ENDCHAR
STARTCHAR s
ENCODING 115
SWIDTH 366 0
DWIDTH 3 0
BBX 4 6 0 -1
BITMAP
0450
6300
8470
3481
0750
0100
ENDCHAR
STARTCHAR t
ENCODING 116
SWIDTH 268 0
DWIDTH 2 0
BBX 4 8 -1 -1
BITMAP
0510
0700
1A93
2A00
0710
0610
0520
0100
ENDCHAR
STARTCHAR u
ENCODING 117
SWIDTH 387 0
DWIDTH 3 0
BBX 4 5 0 0
BITMAP
2020
7070
8080
71D0
5A81
ENDCHAR
STARTCHAR v
ENCODING 118
SWIDTH 354 0
DWIDTH 3 0
BBX 3 5 0 0
BITMAP
0070
7090
5480
0990
02B0
ENDCHAR
STARTCHAR w
ENCODING 119
SWIDTH 566 0
DWIDTH 5 0
BBX 5 5 0 0
BITMAP
305030
72B270
295770
0B43A0
053040
ENDCHAR
STARTCHAR x
ENCODING 120
SWIDTH 454 0
DWIDTH 4 0
BBX 4 7 0 -1
BITMAP
0030
1080
8360
0960
0883
0805
0500
ENDCHAR
STARTCHAR y
ENCODING 121
SWIDTH 363 0
DWIDTH 3 0
BBX 4 9 0 -4
BITMAP
0031
8161
2771
06B0
00C0
0070
0070
0070
0020
ENDCHAR
STARTCHAR z
ENCODING 122
SWIDTH 618 0
DWIDTH 6 0
BBX 6 5 0 0
BITMAP
004400
577600
009000
035012
089884
ENDCHAR
STARTCHAR braceleft
ENCODING 123
SWIDTH 348 0
DWIDTH 3 0
BBX 3 9 0 -1
BITMAP
0650
4400
1500
5700
3400
A300
7000
8100
1820
ENDCHAR
STARTCHAR bar
ENCODING 124
SWIDTH 137 0
DWIDTH 1 0
BBX 1 8 0 0
BITMAP
40
60
60
60
60
60
70
60
ENDCHAR
STARTCHAR braceright
ENCODING 125
SWIDTH 348 0
DWIDTH 3 0
BBX 3 9 0 -1
BITMAP
4400
1620
0510
0830
0340
0570
0060
0070
3920
ENDCHAR
STARTCHAR asciitilde
ENCODING 126
SWIDTH 458 0
DWIDTH 4 0
BBX 4 2 0 5
BITMAP
1602
53A6
ENDCHAR
STARTCHAR nonbreakingspace
ENCODING 160
SWIDTH 450 0
DWIDTH 4 0
BBX 1 1 0 0
BITMAP
00
ENDCHAR
STARTCHAR exclamdown
ENCODING 161
SWIDTH 137 0
DWIDTH 1 0
BBX 1 6 0 -1
BITMAP
20
00
40
60
60
40
ENDCHAR
STARTCHAR cent
ENCODING 162
SWIDTH 394 0
DWIDTH 4 0
BBX 4 8 0 -1
BITMAP
0200
0800
5A70
7500
7401
6452
5A60
0310
ENDCHAR
STARTCHAR sterling
ENCODING 163
SWIDTH 539 0
DWIDTH 5 0
BBX 5 7 0 -1
BITMAP
007730
062000
6B6000
070000
160000
0A8740
010000
ENDCHAR
STARTCHAR currency
ENCODING 164
SWIDTH 500 0
DWIDTH 5 0
BBX 4 6 0 0
BITMAP
0317
0BA5
0724
0863
6684
1000
ENDCHAR
STARTCHAR yen
ENCODING 165
SWIDTH 478 0
DWIDTH 4 0
BBX 4 8 0 0
BITMAP
0002
1829
0A91
0490
14A5
27B3
2471
0150
ENDCHAR
STARTCHAR brokenbar
ENCODING 166
SWIDTH 137 0
DWIDTH 1 0
BBX 1 8 0 0
BITMAP
40
60
60
30
60
60
70
60
ENDCHAR
STARTCHAR section
ENCODING 167
SWIDTH 366 0
DWIDTH 3 0
BBX 4 8 0 -1
BITMAP
0640
7100
8680
7280
8890
3481
0750
0100
ENDCHAR
STARTCHAR dieresis
ENCODING 168
SWIDTH 306 0
DWIDTH 3 0
BBX 3 1 0 6
BITMAP
3320
ENDCHAR
STARTCHAR copyright
ENCODING 169
SWIDTH 485 0
DWIDTH 4 0
BBX 5 6 0 0
BITMAP
078700
386710
771530
771C10
738800
697000
ENDCHAR
STARTCHAR ordfeminine
ENCODING 170
SWIDTH 227 0
DWIDTH 2 0
BBX 2 3 0 1
BITMAP
03
57
84
ENDCHAR
STARTCHAR guillemotleft
ENCODING 171
SWIDTH 652 0
DWIDTH 6 0
BBX 6 5 0 1
BITMAP
001452
029760
468300
397810
017480
ENDCHAR
STARTCHAR logicalnot
ENCODING 172
SWIDTH 539 0
DWIDTH 5 0
BBX 5 3 0 1
BITMAP
266730
000060
000050
ENDCHAR
STARTCHAR uni00AD
ENCODING 173
SWIDTH 399 0
DWIDTH 4 0
BBX 4 2 0 1
BITMAP
1683
4200
ENDCHAR
STARTCHAR registered
ENCODING 174
SWIDTH 382 0
DWIDTH 3 0
BBX 5 6 0 0
BITMAP
069500
465800
776730
787720
731A00
698200
ENDCHAR
STARTCHAR macron
ENCODING 175
SWIDTH 399 0
DWIDTH 4 0
BBX 4 1 0 6
BITMAP
5672
ENDCHAR
STARTCHAR degree
ENCODING 176
SWIDTH 201 0
DWIDTH 2 0
BBX 2 2 0 3
BITMAP
65
43
ENDCHAR
STARTCHAR plusminus
ENCODING 177
SWIDTH 466 0
DWIDTH 4 0
BBX 4 5 0 0
BITMAP
0600
0632
5A40
0652
3431
ENDCHAR
STARTCHAR twosuperior
ENCODING 178
SWIDTH 318 0
DWIDTH 3 0
BBX 3 3 0 1
BITMAP
4400
0400
3520
ENDCHAR
STARTCHAR threesuperior
ENCODING 179
SWIDTH 280 0
DWIDTH 3 0
BBX 3 4 0 2
BITMAP
3400
2500
3140
0500
ENDCHAR
STARTCHAR acute
ENCODING 180
SWIDTH 155 0
DWIDTH 1 0
BBX 2 2 0 5
BITMAP
21
60
ENDCHAR
STARTCHAR mu
ENCODING 181
SWIDTH 387 0
DWIDTH 3 0
BBX 3 6 0 -1
BITMAP
5060
8090
90B0
A4D0
8620
6000
ENDCHAR
STARTCHAR paragraph
ENCODING 182
SWIDTH 447 0
DWIDTH 4 0
BBX 4 6 0 0
BITMAP
29B5
BFA6
4486
0086
0076
0064
ENDCHAR
STARTCHAR periodcentered
ENCODING 183
SWIDTH 128 0
DWIDTH 1 0
BBX 1 1 0 2
BITMAP
40
ENDCHAR
STARTCHAR cedilla
ENCODING 184
SWIDTH 322 0
DWIDTH 3 0
BBX 3 4 0 -3
BITMAP
2000
6300
1760
2840
ENDCHAR
STARTCHAR onesuperior
ENCODING 185
SWIDTH 112 0
DWIDTH 1 0
BBX 1 3 0 1
BITMAP
50
60
50
ENDCHAR
STARTCHAR ordmasculine
ENCODING 186
SWIDTH 212 0
DWIDTH 2 0
BBX 2 3 0 1
BITMAP
32
55
75
ENDCHAR
STARTCHAR guillemotright
ENCODING 187
SWIDTH 625 0
DWIDTH 6 0
BBX 6 5 0 1
BITMAP
578500
028681
004470
067920
547100
ENDCHAR
STARTCHAR onequarter
ENCODING 188
SWIDTH 678 0
DWIDTH 6 0
BBX 6 8 0 -1
BITMAP
002000
006000
233160
560770
666493
754260
610060
400000
ENDCHAR
STARTCHAR onehalf
ENCODING 189
SWIDTH 693 0
DWIDTH 6 0
BBX 6 8 0 -1
BITMAP
001100
006000
306000
518700
553410
460600
061851
220000
ENDCHAR
STARTCHAR threequarters
ENCODING 190
SWIDTH 868 0
DWIDTH 8 0
BBX 7 8 0 -1
BITMAP
00001100
15306200
3330B600
1844A500
003F5810
04470500
00150500
00310000
ENDCHAR
STARTCHAR questiondown
ENCODING 191
SWIDTH 541 0
DWIDTH 5 0
BBX 5 8 0 -1
BITMAP
003000
000000
001000
015700
008200
072000
250440
066400
ENDCHAR
STARTCHAR Agrave
ENCODING 192
SWIDTH 390 0
DWIDTH 4 0
BBX 5 8 0 0
BITMAP
040000
0B0000
2C0000
365000
537320
66C310
724300
500500
ENDCHAR
STARTCHAR Aacute
ENCODING 193
SWIDTH 390 0
DWIDTH 4 0
BBX 5 9 0 0
BITMAP
040000
330000
150000
4B0000
563000
717410
85C210
816100
501400
ENDCHAR
STARTCHAR Acircumflex
ENCODING 194
SWIDTH 390 0
DWIDTH 4 0
BBX 6 10 -1 0
BITMAP
012000
067100
250600
015000
04B000
056300
071741
085C21
081610
050140
ENDCHAR
STARTCHAR Atilde
ENCODING 195
SWIDTH 390 0
DWIDTH 4 0
BBX 5 10 0 0
BITMAP
431100
579100
000000
150000
4B0000
563000
717410
85C210
816100
501400
ENDCHAR
STARTCHAR Adieresis
ENCODING 196
SWIDTH 390 0
DWIDTH 4 0
BBX 5 8 0 0
BITMAP
432000
150000
4B0000
563000
717410
85C210
816100
501400
ENDCHAR
STARTCHAR Aring
ENCODING 197
SWIDTH 390 0
DWIDTH 4 0
BBX 5 8 0 0
BITMAP
891000
790000
3B0000
563000
717410
85C210
816100
501400
ENDCHAR
STARTCHAR AE
ENCODING 198
SWIDTH 708 0
DWIDTH 6 0
BBX 7 7 0 0
BITMAP
15304300
4B693000
56820100
71B76100
85D60110
81655600
50293000
ENDCHAR
STARTCHAR Ccedilla
ENCODING 199
SWIDTH 487 0
DWIDTH 4 0
BBX 5 10 0 -3
BITMAP
027000
071100
330000
700000
700410
701800
677000
071000
039200
049300
ENDCHAR
STARTCHAR Egrave
ENCODING 200
SWIDTH 474 0
DWIDTH 4 0
BBX 4 9 0 0
BITMAP
0400
0400
3042
8830
7001
6561
6501
5355
5820
ENDCHAR
STARTCHAR Eacute
ENCODING 201
SWIDTH 474 0
DWIDTH 4 0
BBX 4 8 0 0
BITMAP
0030
3372
8830
7001
6561
6501
5355
5820
ENDCHAR
STARTCHAR Ecircumflex
ENCODING 202
SWIDTH 474 0
DWIDTH 4 0
BBX 4 10 0 0
BITMAP
0120
0771
2406
3042
8830
7001
6561
6501
5355
5820
ENDCHAR
STARTCHAR Edieresis
ENCODING 203
SWIDTH 474 0
DWIDTH 4 0
BBX 4 8 0 0
BITMAP
0440
3042
8830
7001
6561
6501
5355
5820
ENDCHAR
STARTCHAR Igrave
ENCODING 204
SWIDTH 153 0
DWIDTH 1 0
BBX 2 9 0 0
BITMAP
40
40
50
60
61
51
52
52
42
ENDCHAR
STARTCHAR Iacute
ENCODING 205
SWIDTH 153 0
DWIDTH 1 0
BBX 2 9 0 0
BITMAP
12
51
50
60
61
51
52
52
42
ENDCHAR
STARTCHAR Icircumflex
ENCODING 206
SWIDTH 153 0
DWIDTH 1 0
BBX 4 10 -1 0
BITMAP
0300
1860
6133
0500
0600
0610
0510
0520
0520
0420
ENDCHAR
STARTCHAR Idieresis
ENCODING 207
SWIDTH 153 0
DWIDTH 1 0
BBX 3 8 -1 0
BITMAP
1440
0500
0600
0610
0510
0520
0520
0420
ENDCHAR
STARTCHAR Eth
ENCODING 208
SWIDTH 554 0
DWIDTH 5 0
BBX 5 7 0 0
BITMAP
152000
794650
160060
060150
293800
389200
063000
ENDCHAR
STARTCHAR Ntilde
ENCODING 209
SWIDTH 541 0
DWIDTH 5 0
BBX 5 9 0 0
BITMAP
160200
53A600
000510
710530
980430
736340
615640
430950
240140
ENDCHAR
STARTCHAR Ograve
ENCODING 210
SWIDTH 382 0
DWIDTH 3 0
BBX 4 8 0 0
BITMAP
0040
0050
0991
5244
7034
7052
7080
6930
ENDCHAR
STARTCHAR Oacute
ENCODING 211
SWIDTH 382 0
DWIDTH 3 0
BBX 4 8 0 0
BITMAP
0310
0600
0991
5244
7034
7052
7080
6930
ENDCHAR
STARTCHAR Ocircumflex
ENCODING 212
SWIDTH 382 0
DWIDTH 3 0
BBX 4 9 0 0
BITMAP
0300
2750
6042
0991
5244
7034
7052
7080
6930
ENDCHAR
STARTCHAR Otilde
ENCODING 213
SWIDTH 382 0
DWIDTH 3 0
BBX 4 9 0 0
BITMAP
1612
52A7
0000
0991
5244
7034
7052
7080
6930
ENDCHAR
STARTCHAR Odieresis
ENCODING 214
SWIDTH 382 0
DWIDTH 3 0
BBX 4 8 0 0
BITMAP
0440
0000
0991
5244
7034
7052
7080
6930
ENDCHAR
STARTCHAR multiply
ENCODING 215
SWIDTH 454 0
DWIDTH 4 0
BBX 4 4 0 1
BITMAP
1000
1681
0850
2360
ENDCHAR
STARTCHAR Oslash
ENCODING 216
SWIDTH 382 0
DWIDTH 3 0
BBX 4 8 0 -1
BITMAP
0020
09C1
5394
7554
7652
7680
7A30
4000
ENDCHAR
STARTCHAR Ugrave
ENCODING 217
SWIDTH 450 0
DWIDTH 4 0
BBX 4 9 0 -1
BITMAP
0400
0220
3004
800A
801A
7049
7076
4746
0006
ENDCHAR
STARTCHAR Uacute
ENCODING 218
SWIDTH 450 0
DWIDTH 4 0
BBX 4 8 0 -1
BITMAP
0040
3234
800A
801A
7049
7076
4746
0006
ENDCHAR
STARTCHAR Ucircumflex
ENCODING 219
SWIDTH 450 0
DWIDTH 4 0
BBX 4 10 0 -1
BITMAP
0210
0770
5225
3004
800A
801A
7049
7076
4746
0006
ENDCHAR
STARTCHAR Udieresis
ENCODING 220
SWIDTH 450 0
DWIDTH 4 0
BBX 4 8 0 -1
BITMAP
0440
3004
800A
801A
7049
7076
4746
0006
ENDCHAR
STARTCHAR Yacute
ENCODING 221
SWIDTH 483 0
DWIDTH 4 0
BBX 5 9 0 0
BITMAP
004000
006000
000410
500600
550700
079300
00A000
017000
043000
ENDCHAR
STARTCHAR Thorn
ENCODING 222
SWIDTH 398 0
DWIDTH 4 0
BBX 4 8 0 0
BITMAP
2000
7000
7792
A216
8062
9740
9100
6000
ENDCHAR
STARTCHAR germandbls
ENCODING 223
SWIDTH 537 0
DWIDTH 5 0
BBX 5 7 0 0
BITMAP
026300
962500
718520
6B4160
350710
158200
062000
ENDCHAR
STARTCHAR agrave
ENCODING 224
SWIDTH 366 0
DWIDTH 3 0
BBX 4 7 0 0
BITMAP
0400
0500
0690
3790
84B0
7960
A241
ENDCHAR
STARTCHAR aacute
ENCODING 225
SWIDTH 366 0
DWIDTH 3 0
BBX 4 7 0 0
BITMAP
0120
0510
0690
3790
84B0
7960
A241
ENDCHAR
STARTCHAR acircumflex
ENCODING 226
SWIDTH 366 0
DWIDTH 3 0
BBX 4 9 0 0
BITMAP
0300
3740
6051
0000
0690
3790
84B0
7960
A241
ENDCHAR
STARTCHAR atilde
ENCODING 227
SWIDTH 366 0
DWIDTH 3 0
BBX 4 7 0 0
BITMAP
2502
64A4
0690
3790
84B0
7960
A241
ENDCHAR
STARTCHAR adieresis
ENCODING 228
SWIDTH 366 0
DWIDTH 3 0
BBX 4 7 0 0
BITMAP
1340
0000
0690
3790
84B0
7960
A241
ENDCHAR
STARTCHAR aring
ENCODING 229
SWIDTH 366 0
DWIDTH 3 0
BBX 4 7 0 0
BITMAP
0100
2880
0BA0
3790
84B0
7960
A241
ENDCHAR
STARTCHAR ae
ENCODING 230
SWIDTH 705 0
DWIDTH 6 0
BBX 7 5 0 0
BITMAP
06989400
37BA7100
84E50410
79722800
A2475000
ENDCHAR
STARTCHAR ccedilla
ENCODING 231
SWIDTH 390 0
DWIDTH 4 0
BBX 4 9 0 -3
BITMAP
0300
5830
7010
7001
6052
5760
0900
04A0
0770
ENDCHAR
STARTCHAR egrave
ENCODING 232
SWIDTH 461 0
DWIDTH 4 0
BBX 4 7 0 0
BITMAP
0400
0230
0781
4781
B602
7028
4760
ENDCHAR
STARTCHAR eacute
ENCODING 233
SWIDTH 461 0
DWIDTH 4 0
BBX 4 7 0 0
BITMAP
0040
0240
0781
4781
B602
7028
4760
ENDCHAR
STARTCHAR ecircumflex
ENCODING 234
SWIDTH 461 0
DWIDTH 4 0
BBX 4 9 0 0
BITMAP
0210
0770
4215
0000
0781
4781
B602
7028
4760
ENDCHAR
STARTCHAR edieresis
ENCODING 235
SWIDTH 461 0
DWIDTH 4 0
BBX 4 7 0 0
BITMAP
0440
0000
0781
4781
B602
7028
4760
ENDCHAR
STARTCHAR igrave
ENCODING 236
SWIDTH 132 0
DWIDTH 1 0
BBX 1 8 0 0
BITMAP
10
70
10
70
80
70
70
70
ENDCHAR
STARTCHAR iacute
ENCODING 237
SWIDTH 132 0
DWIDTH 1 0
BBX 2 8 0 0
BITMAP
22
50
10
70
80
70
70
70
ENDCHAR
STARTCHAR icircumflex
ENCODING 238
SWIDTH 132 0
DWIDTH 1 0
BBX 4 9 -1 0
BITMAP
0300
4740
6061
0100
0700
0800
0700
0700
0700
ENDCHAR
STARTCHAR idieresis
ENCODING 239
SWIDTH 132 0
DWIDTH 1 0
BBX 3 7 -1 0
BITMAP
2340
0100
0700
0800
0700
0700
0700
ENDCHAR
STARTCHAR eth
ENCODING 240
SWIDTH 481 0
DWIDTH 4 0
BBX 5 6 0 0
BITMAP
022000
017100
06A610
2A5500
518400
188000
ENDCHAR
STARTCHAR ntilde
ENCODING 241
SWIDTH 483 0
DWIDTH 4 0
BBX 4 8 0 0
BITMAP
0522
3399
1011
71A7
8717
8708
8707
6305
ENDCHAR
STARTCHAR ograve
ENCODING 242
SWIDTH 266 0
DWIDTH 2 0
BBX 3 7 0 0
BITMAP
3100
1400
6800
6430
7330
7610
8700
ENDCHAR
STARTCHAR oacute
ENCODING 243
SWIDTH 266 0
DWIDTH 2 0
BBX 3 7 0 0
BITMAP
0400
1500
6800
6430
7330
7610
8700
ENDCHAR
STARTCHAR ocircumflex
ENCODING 244
SWIDTH 266 0
DWIDTH 2 0
BBX 4 9 -1 0
BITMAP
0120
0771
2406
0000
0680
0643
0733
0761
0870
ENDCHAR
STARTCHAR otilde
ENCODING 245
SWIDTH 266 0
DWIDTH 2 0
BBX 4 7 -1 0
BITMAP
0522
2399
0680
0643
0733
0761
0870
ENDCHAR
STARTCHAR odieresis
ENCODING 246
SWIDTH 266 0
DWIDTH 2 0
BBX 3 7 0 0
BITMAP
4410
0000
6800
6430
7330
7610
8700
ENDCHAR
STARTCHAR divide
ENCODING 247
SWIDTH 345 0
DWIDTH 3 0
BBX 3 3 0 1
BITMAP
0300
4660
0300
ENDCHAR
STARTCHAR oslash
ENCODING 248
SWIDTH 266 0
DWIDTH 2 0
BBX 3 7 0 -1
BITMAP
0010
6A20
6830
7930
B710
A700
4000
ENDCHAR
STARTCHAR ugrave
ENCODING 249
SWIDTH 387 0
DWIDTH 3 0
BBX 4 7 0 0
BITMAP
0400
0500
2020
7070
8080
71D0
5A81
ENDCHAR
STARTCHAR uacute
ENCODING 250
SWIDTH 387 0
DWIDTH 3 0
BBX 4 7 0 0
BITMAP
0130
0510
2020
7070
8080
71D0
5A81
ENDCHAR
STARTCHAR ucircumflex
ENCODING 251
SWIDTH 387 0
DWIDTH 3 0
BBX 4 9 0 0
BITMAP
0300
2850
6042
0000
2020
7070
8080
71D0
5A81
ENDCHAR
STARTCHAR udieresis
ENCODING 252
SWIDTH 387 0
DWIDTH 3 0
BBX 4 7 0 0
BITMAP
1340
0000
2020
7070
8080
71D0
5A81
ENDCHAR
STARTCHAR yacute
ENCODING 253
SWIDTH 363 0
DWIDTH 3 0
BBX 4 11 0 -4
BITMAP
0120
0510
0031
8161
2771
06B0
00C0
0070
0070
0070
0020
ENDCHAR
STARTCHAR thorn
ENCODING 254
SWIDTH 439 0
DWIDTH 4 0
BBX 4 7 0 -1
BITMAP
6263
9507
7062
7930
7100
6000
1000
ENDCHAR
STARTCHAR ydieresis
ENCODING 255
SWIDTH 363 0
DWIDTH 3 0
BBX 4 11 0 -4
BITMAP
2340
0000
0031
8161
2771
06B0
00C0
0070
0070
0070
0020
ENDCHAR
STARTCHAR Amacron
ENCODING 256
SWIDTH 390 0
DWIDTH 4 0
BBX 5 8 0 0
BITMAP
567200
150000
4B0000
563000
717410
85C210
816100
501400
ENDCHAR
STARTCHAR amacron
ENCODING 257
SWIDTH 366 0
DWIDTH 3 0
BBX 4 7 0 0
BITMAP
5672
0000
0690
3790
84B0
7960
A241
ENDCHAR
STARTCHAR Abreve
ENCODING 258
SWIDTH 390 0
DWIDTH 4 0
BBX 5 9 0 0
BITMAP
315000
182000
150000
4B0000
563000
717410
85C210
816100
501400
ENDCHAR
STARTCHAR abreve
ENCODING 259
SWIDTH 366 0
DWIDTH 3 0
BBX 4 7 0 0
BITMAP
2150
0730
0690
3790
84B0
7960
A241
ENDCHAR
STARTCHAR Aogonek
ENCODING 260
SWIDTH 390 0
DWIDTH 4 0
BBX 5 10 0 -3
BITMAP
150000
4B0000
563000
717410
85C210
816100
502500
007100
008620
001200
ENDCHAR
STARTCHAR aogonek
ENCODING 261
SWIDTH 366 0
DWIDTH 3 0
BBX 4 7 0 -2
BITMAP
0690
3790
84B0
7960
A271
0070
0088
ENDCHAR
STARTCHAR Cacute
ENCODING 262
SWIDTH 487 0
DWIDTH 4 0
BBX 5 8 0 0
BITMAP
004000
04B000
071100
330000
700000
700410
701800
677000
ENDCHAR
STARTCHAR cacute
ENCODING 263
SWIDTH 390 0
DWIDTH 4 0
BBX 4 8 0 0
BITMAP
0210
0600
0300
5830
7010
7001
6052
5760
ENDCHAR
STARTCHAR Ccircumflex
ENCODING 264
SWIDTH 487 0
DWIDTH 4 0
BBX 5 10 0 0
BITMAP
021000
077000
331600
027000
071100
330000
700000
700410
701800
677000
ENDCHAR
STARTCHAR ccircumflex
ENCODING 265
SWIDTH 390 0
DWIDTH 4 0
BBX 4 9 0 0
BITMAP
0300
2850
6042
0300
5830
7010
7001
6052
5760
ENDCHAR
STARTCHAR Cdotaccent
ENCODING 266
SWIDTH 487 0
DWIDTH 4 0
BBX 5 8 0 0
BITMAP
013000
027000
071100
330000
700000
700410
701800
677000
ENDCHAR
STARTCHAR cdotaccent
ENCODING 267
SWIDTH 390 0
DWIDTH 4 0
BBX 4 7 0 0
BITMAP
0100
0600
5830
7010
7001
6062
5760
ENDCHAR
STARTCHAR Ccaron
ENCODING 268
SWIDTH 487 0
DWIDTH 4 0
BBX 5 9 0 0
BITMAP
100000
063400
049000
071100
330000
700000
700410
701800
677000
ENDCHAR
STARTCHAR ccaron
ENCODING 269
SWIDTH 390 0
DWIDTH 4 0
BBX 4 8 0 0
BITMAP
1000
4361
0700
5830
7010
7001
6052
5760
ENDCHAR
STARTCHAR Dcaron
ENCODING 270
SWIDTH 554 0
DWIDTH 5 0
BBX 5 9 0 0
BITMAP
010000
052600
157000
794650
160060
070150
060800
068200
063000
ENDCHAR
STARTCHAR Emacron
ENCODING 274
SWIDTH 474 0
DWIDTH 4 0
BBX 4 8 0 0
BITMAP
4673
3042
8830
7001
6561
6501
5355
5820
ENDCHAR
STARTCHAR emacron
ENCODING 275
SWIDTH 461 0
DWIDTH 4 0
BBX 4 7 0 0
BITMAP
3675
0000
0781
4781
B602
7028
4760
ENDCHAR
STARTCHAR Ebreve
ENCODING 276
SWIDTH 474 0
DWIDTH 4 0
BBX 4 9 0 0
BITMAP
0332
0470
3042
8830
7001
6561
6501
5355
5820
ENDCHAR
STARTCHAR ebreve
ENCODING 277
SWIDTH 461 0
DWIDTH 4 0
BBX 4 7 0 0
BITMAP
0332
0470
0781
4781
B602
7028
4760
ENDCHAR
STARTCHAR Edotaccent
ENCODING 278
SWIDTH 474 0
DWIDTH 4 0
BBX 4 8 0 0
BITMAP
0300
3142
8830
7001
6561
6501
5355
5820
ENDCHAR
STARTCHAR edotaccent
ENCODING 279
SWIDTH 461 0
DWIDTH 4 0
BBX 4 6 0 0
BITMAP
0130
0781
4781
B602
7028
4760
ENDCHAR
STARTCHAR Eogonek
ENCODING 280
SWIDTH 474 0
DWIDTH 4 0
BBX 4 8 0 -1
BITMAP
3042
8830
7001
6561
6501
5355
5A60
0087
ENDCHAR
STARTCHAR eogonek
ENCODING 281
SWIDTH 461 0
DWIDTH 4 0
BBX 4 7 0 -2
BITMAP
0781
4781
B602
7028
4770
0700
0681
ENDCHAR
STARTCHAR Ecaron
ENCODING 282
SWIDTH 474 0
DWIDTH 4 0
BBX 4 9 0 0
BITMAP
1000
2452
3462
8830
7001
6561
6501
5355
5820
ENDCHAR
STARTCHAR ecaron
ENCODING 283
SWIDTH 461 0
DWIDTH 4 0
BBX 4 8 0 0
BITMAP
1000
1543
0320
0781
4781
B602
7028
4760
ENDCHAR
STARTCHAR Gcircumflex
ENCODING 284
SWIDTH 591 0
DWIDTH 5 0
BBX 6 10 0 -1
BITMAP
003000
037400
060510
007500
061000
250681
600390
701970
688170
000070
ENDCHAR
STARTCHAR gcircumflex
ENCODING 285
SWIDTH 437 0
DWIDTH 4 0
BBX 4 13 0 -4
BITMAP
0300
0770
5124
0000
05A4
2596
6277
8918
4209
0009
0026
0081
1740
ENDCHAR
STARTCHAR Gbreve
ENCODING 286
SWIDTH 591 0
DWIDTH 5 0
BBX 6 9 0 -1
BITMAP
013500
006500
007500
061000
250681
600390
701970
688170
000070
ENDCHAR
STARTCHAR gbreve
ENCODING 287
SWIDTH 437 0
DWIDTH 4 0
BBX 4 12 0 -4
BITMAP
0341
0560
0000
05A4
2596
6277
8918
4209
0009
0026
0081
1740
ENDCHAR
STARTCHAR Gdotaccent
ENCODING 288
SWIDTH 591 0
DWIDTH 5 0
BBX 6 9 0 -1
BITMAP
003000
000000
005600
043000
070582
5202B0
700980
588280
000070
ENDCHAR
STARTCHAR gdotaccent
ENCODING 289
SWIDTH 437 0
DWIDTH 4 0
BBX 4 11 0 -4
BITMAP
0040
0000
05A4
2596
6277
8918
4209
0009
0026
0081
1740
ENDCHAR
STARTCHAR Gcommaaccent
ENCODING 290
SWIDTH 591 0
DWIDTH 5 0
BBX 6 9 0 -3
BITMAP
007500
061000
250681
600390
701970
688170
001070
008000
005000
ENDCHAR
STARTCHAR Hcircumflex
ENCODING 292
SWIDTH 424 0
DWIDTH 4 0
BBX 4 10 0 0
BITMAP
0300
2850
6042
0000
6061
7042
7084
9745
7006
6006
ENDCHAR
STARTCHAR hcircumflex
ENCODING 293
SWIDTH 466 0
DWIDTH 4 0
BBX 5 9 0 0
BITMAP
003000
028500
460420
700000
704400
858800
890800
A50800
700800
ENDCHAR
STARTCHAR Hbar
ENCODING 294
SWIDTH 424 0
DWIDTH 4 0
BBX 4 6 0 0
BITMAP
6061
9694
7074
9745
7006
6006
ENDCHAR
STARTCHAR hbar
ENCODING 295
SWIDTH 466 0
DWIDTH 4 0
BBX 5 7 -1 0
BITMAP
040000
070000
3B7840
085880
089080
0A5080
070080
ENDCHAR
STARTCHAR Itilde
ENCODING 296
SWIDTH 153 0
DWIDTH 1 0
BBX 4 9 -1 0
BITMAP
3402
66A3
0500
0600
0610
0510
0520
0520
0420
ENDCHAR
STARTCHAR itilde
ENCODING 297
SWIDTH 132 0
DWIDTH 1 0
BBX 4 7 -1 0
BITMAP
9972
0230
0700
0800
0700
0700
0700
ENDCHAR
STARTCHAR imacron
ENCODING 299
SWIDTH 132 0
DWIDTH 1 0
BBX 4 7 -1 0
BITMAP
6671
0100
0700
0800
0700
0700
0700
ENDCHAR
STARTCHAR Ibreve
ENCODING 300
SWIDTH 153 0
DWIDTH 1 0
BBX 3 9 -1 0
BITMAP
2150
0730
0500
0600
0610
0510
0520
0520
0420
ENDCHAR
STARTCHAR ibreve
ENCODING 301
SWIDTH 132 0
DWIDTH 1 0
BBX 3 7 -1 0
BITMAP
3770
0200
0700
0800
0700
0700
0700
ENDCHAR
STARTCHAR Iogonek
ENCODING 302
SWIDTH 153 0
DWIDTH 1 0
BBX 3 9 0 -2
BITMAP
5000
6000
6100
5100
5200
5200
6200
7000
6810
ENDCHAR
STARTCHAR iogonek
ENCODING 303
SWIDTH 132 0
DWIDTH 1 0
BBX 3 9 -1 -2
BITMAP
0300
0100
0700
0800
0700
0700
0700
2600
2970
ENDCHAR
STARTCHAR Idotaccent
ENCODING 304
SWIDTH 153 0
DWIDTH 1 0
BBX 1 8 0 0
BITMAP
40
50
70
70
70
70
60
50
ENDCHAR
STARTCHAR dotlessi
ENCODING 305
SWIDTH 132 0
DWIDTH 1 0
BBX 1 6 0 0
BITMAP
10
70
80
70
70
70
ENDCHAR
STARTCHAR Jcircumflex
ENCODING 308
SWIDTH 371 0
DWIDTH 3 0
BBX 4 10 0 -1
BITMAP
0120
0771
2436
0070
0070
0080
0070
1060
5060
1540
ENDCHAR
STARTCHAR jcircumflex
ENCODING 309
SWIDTH 112 0
DWIDTH 1 0
BBX 4 12 -2 -3
BITMAP
0030
0573
0606
0000
0040
0070
0070
0070
0070
0070
1070
3770
ENDCHAR
STARTCHAR Kcommaaccent
ENCODING 310
SWIDTH 524 0
DWIDTH 5 0
BBX 5 9 0 -3
BITMAP
701300
608000
662000
580000
4A6640
150000
001000
008000
005000
ENDCHAR
STARTCHAR kcommaaccent
ENCODING 311
SWIDTH 428 0
DWIDTH 4 0
BBX 4 10 0 -3
BITMAP
6000
8002
8056
81A0
8920
A700
7375
1000
0630
0510
ENDCHAR
STARTCHAR Lacute
ENCODING 313
SWIDTH 537 0
DWIDTH 5 0
BBX 5 7 0 0
BITMAP
003100
506000
900000
900000
900000
902750
886000
ENDCHAR
STARTCHAR lacute
ENCODING 314
SWIDTH 137 0
DWIDTH 1 0
BBX 2 10 0 0
BITMAP
31
60
40
60
60
60
60
60
70
60
ENDCHAR
STARTCHAR Lcommaaccent
ENCODING 315
SWIDTH 537 0
DWIDTH 5 0
BBX 5 9 0 -3
BITMAP
500000
900000
900000
900000
902750
886000
001000
008000
005000
ENDCHAR
STARTCHAR lcommaaccent
ENCODING 316
SWIDTH 137 0
DWIDTH 1 0
BBX 1 11 0 -3
BITMAP
40
60
60
60
60
60
70
60
10
80
50
ENDCHAR
STARTCHAR Lcaron
ENCODING 317
SWIDTH 537 0
DWIDTH 5 0
BBX 5 9 0 0
BITMAP
100000
245200
031000
500000
900000
900000
900000
902750
886000
ENDCHAR
STARTCHAR Ldot
ENCODING 319
SWIDTH 537 0
DWIDTH 5 0
BBX 5 6 0 0
BITMAP
500000
900000
900000
904000
902750
886000
ENDCHAR
STARTCHAR ldot
ENCODING 320
SWIDTH 267 0
DWIDTH 2 0
BBX 2 8 0 0
BITMAP
40
60
60
60
60
64
70
60
ENDCHAR
STARTCHAR Lslash
ENCODING 321
SWIDTH 537 0
DWIDTH 5 0
BBX 6 6 -1 0
BITMAP
050000
090000
090000
1A8700
1A0275
088600
ENDCHAR
STARTCHAR lslash
ENCODING 322
SWIDTH 137 0
DWIDTH 1 0
BBX 4 8 -1 0
BITMAP
0400
0600
0600
0600
0600
2982
4800
0600
ENDCHAR
STARTCHAR Nacute
ENCODING 323
SWIDTH 541 0
DWIDTH 5 0
BBX 5 8 0 0
BITMAP
003000
032510
710530
980430
736340
615640
430950
240140
ENDCHAR
STARTCHAR nacute
ENCODING 324
SWIDTH 483 0
DWIDTH 4 0
BBX 4 7 0 0
BITMAP
0040
1241
71A7
8717
8708
8707
6305
ENDCHAR
STARTCHAR Ncommaaccent
ENCODING 325
SWIDTH 541 0
DWIDTH 5 0
BBX 5 10 0 -3
BITMAP
000510
710530
980430
736340
615640
430950
240140
001000
008000
005000
ENDCHAR
STARTCHAR ncommaaccent
ENCODING 326
SWIDTH 483 0
DWIDTH 4 0
BBX 4 9 0 -3
BITMAP
1011
71A7
8717
8708
8707
6305
0000
0260
0230
ENDCHAR
STARTCHAR Ncaron
ENCODING 327
SWIDTH 541 0
DWIDTH 5 0
BBX 5 9 0 0
BITMAP
010000
063500
013510
710530
980430
736340
615640
430950
240140
ENDCHAR
STARTCHAR ncaron
ENCODING 328
SWIDTH 483 0
DWIDTH 4 0
BBX 4 8 0 0
BITMAP
1000
1644
1231
71A7
8717
8708
8707
6305
ENDCHAR
STARTCHAR napostrophe
ENCODING 329
SWIDTH 483 0
DWIDTH 4 0
BBX 4 9 0 0
BITMAP
0100
0800
0500
1011
71A7
8717
8708
8707
6305
ENDCHAR
STARTCHAR Omacron
ENCODING 332
SWIDTH 382 0
DWIDTH 3 0
BBX 4 8 0 0
BITMAP
2675
0000
0991
5244
7034
7052
7080
6930
ENDCHAR
STARTCHAR omacron
ENCODING 333
SWIDTH 266 0
DWIDTH 2 0
BBX 4 7 -1 0
BITMAP
2676
0000
0680
0643
0733
0761
0870
ENDCHAR
STARTCHAR Obreve
ENCODING 334
SWIDTH 382 0
DWIDTH 3 0
BBX 4 8 0 0
BITMAP
2150
0740
0991
5244
7034
7052
7080
6930
ENDCHAR
STARTCHAR obreve
ENCODING 335
SWIDTH 266 0
DWIDTH 2 0
BBX 3 7 0 0
BITMAP
3230
3700
6800
6430
7330
7610
8700
ENDCHAR
STARTCHAR Ohungarumlaut
ENCODING 336
SWIDTH 382 0
DWIDTH 3 0
BBX 4 8 0 0
BITMAP
0042
0373
0991
5244
7034
7052
7080
6930
ENDCHAR
STARTCHAR ohungarumlaut
ENCODING 337
SWIDTH 266 0
DWIDTH 2 0
BBX 3 7 0 0
BITMAP
1410
4710
6800
6430
7330
7610
8700
ENDCHAR
STARTCHAR OE
ENCODING 338
SWIDTH 732 0
DWIDTH 7 0
BBX 7 7 0 0
BITMAP
00101400
09BA6100
52440000
70366300
705A0010
70982720
694B5000
ENDCHAR
STARTCHAR oe
ENCODING 339
SWIDTH 628 0
DWIDTH 6 0
BBX 6 5 0 0
BITMAP
681870
64B660
73D203
768064
875740
ENDCHAR
STARTCHAR Racute
ENCODING 340
SWIDTH 503 0
DWIDTH 5 0
BBX 5 9 0 0
BITMAP
003100
106000
967820
910710
746000
950000
778100
601730
500000
ENDCHAR
STARTCHAR racute
ENCODING 341
SWIDTH 396 0
DWIDTH 4 0
BBX 4 7 0 0
BITMAP
0130
0410
3172
6810
6700
5800
3700
ENDCHAR
STARTCHAR Rcommaaccent
ENCODING 342
SWIDTH 503 0
DWIDTH 5 0
BBX 5 11 0 -3
BITMAP
100000
967820
910710
746000
950000
778100
601730
500000
001000
018000
015000
ENDCHAR
STARTCHAR rcommaaccent
ENCODING 343
SWIDTH 396 0
DWIDTH 4 0
BBX 4 8 0 -3
BITMAP
3172
6810
6700
5800
3700
0100
0810
0500
ENDCHAR
STARTCHAR Rcaron
ENCODING 344
SWIDTH 503 0
DWIDTH 5 0
BBX 5 10 0 0
BITMAP
010000
062500
114000
967820
910710
746000
950000
778100
601730
500000
ENDCHAR
STARTCHAR rcaron
ENCODING 345
SWIDTH 396 0
DWIDTH 4 0
BBX 4 8 0 0
BITMAP
1000
3361
0400
3172
6810
6700
5800
3700
ENDCHAR
STARTCHAR Sacute
ENCODING 346
SWIDTH 541 0
DWIDTH 5 0
BBX 5 8 0 0
BITMAP
003000
00B500
171100
700000
700000
255630
000550
067200
ENDCHAR
STARTCHAR sacute
ENCODING 347
SWIDTH 366 0
DWIDTH 3 0
BBX 4 8 0 -1
BITMAP
0120
0510
0450
6300
8470
3481
0750
0100
ENDCHAR
STARTCHAR Scircumflex
ENCODING 348
SWIDTH 541 0
DWIDTH 5 0
BBX 5 10 0 0
BITMAP
003000
037400
060510
005500
171100
700000
700000
255630
000550
067200
ENDCHAR
STARTCHAR scircumflex
ENCODING 349
SWIDTH 366 0
DWIDTH 3 0
BBX 4 9 0 -1
BITMAP
0300
2850
6042
0450
6300
8470
3481
0750
0100
ENDCHAR
STARTCHAR Scedilla
ENCODING 350
SWIDTH 541 0
DWIDTH 5 0
BBX 5 10 0 -3
BITMAP
005500
171100
700000
700000
255630
000550
067300
001800
000490
000760
ENDCHAR
STARTCHAR scedilla
ENCODING 351
SWIDTH 366 0
DWIDTH 3 0
BBX 4 8 0 -3
BITMAP
0450
6300
8470
3481
0750
0910
03A2
0492
ENDCHAR
STARTCHAR Scaron
ENCODING 352
SWIDTH 541 0
DWIDTH 5 0
BBX 5 9 0 0
BITMAP
010000
062500
019500
171100
700000
700000
255630
000550
067200
ENDCHAR
STARTCHAR scaron
ENCODING 353
SWIDTH 366 0
DWIDTH 3 0
BBX 4 9 0 -1
BITMAP
1000
4261
0400
0450
6300
8470
3481
0750
0100
ENDCHAR
STARTCHAR Tcommaaccent
ENCODING 354
SWIDTH 595 0
DWIDTH 5 0
BBX 7 10 0 -3
BITMAP
00123410
67894200
00160000
00070000
00070000
00080000
00070000
00010000
00062000
00050000
ENDCHAR
STARTCHAR tcommaaccent
ENCODING 355
SWIDTH 268 0
DWIDTH 2 0
BBX 4 10 -1 -3
BITMAP
0510
0700
1A93
2A00
0710
0610
0520
0110
0170
0140
ENDCHAR
STARTCHAR Tcaron
ENCODING 356
SWIDTH 595 0
DWIDTH 5 0
BBX 7 10 0 0
BITMAP
00100000
00625000
00040000
00123410
67894200
00160000
00070000
00070000
00080000
00070000
ENDCHAR
STARTCHAR Tbar
ENCODING 358
SWIDTH 595 0
DWIDTH 5 0
BBX 7 7 0 0
BITMAP
00123410
67894200
015A5000
01270000
00070000
00080000
00070000
ENDCHAR
STARTCHAR Utilde
ENCODING 360
SWIDTH 450 0
DWIDTH 4 0
BBX 4 9 0 -1
BITMAP
1612
52A7
3004
800A
801A
7049
7076
4746
0006
ENDCHAR
STARTCHAR utilde
ENCODING 361
SWIDTH 387 0
DWIDTH 3 0
BBX 4 7 0 0
BITMAP
3411
6692
2020
7070
8080
71D0
5A81
ENDCHAR
STARTCHAR Umacron
ENCODING 362
SWIDTH 450 0
DWIDTH 4 0
BBX 4 8 0 -1
BITMAP
3674
3004
800A
801A
7049
7076
4746
0006
ENDCHAR
STARTCHAR umacron
ENCODING 363
SWIDTH 387 0
DWIDTH 3 0
BBX 4 7 0 0
BITMAP
5672
0000
2020
7070
8080
71D0
5A81
ENDCHAR
STARTCHAR Ubreve
ENCODING 364
SWIDTH 450 0
DWIDTH 4 0
BBX 4 8 0 -1
BITMAP
0332
3464
800A
801A
7049
7076
4746
0006
ENDCHAR
STARTCHAR ubreve
ENCODING 365
SWIDTH 387 0
DWIDTH 3 0
BBX 4 7 0 0
BITMAP
1250
0640
2020
7070
8080
71D0
5A81
ENDCHAR
STARTCHAR Uring
ENCODING 366
SWIDTH 450 0
DWIDTH 4 0
BBX 4 8 0 -1
BITMAP
1990
3544
800A
801A
7049
7076
4746
0006
ENDCHAR
STARTCHAR uring
ENCODING 367
SWIDTH 387 0
DWIDTH 3 0
BBX 4 6 0 0
BITMAP
3880
3550
7070
8080
71D0
5A81
ENDCHAR
STARTCHAR Uhungarumlaut
ENCODING 368
SWIDTH 450 0
DWIDTH 4 0
BBX 4 9 0 -1
BITMAP
0330
0570
3004
800A
801A
7049
7076
4746
0006
ENDCHAR
STARTCHAR uhungarumlaut
ENCODING 369
SWIDTH 387 0
DWIDTH 3 0
BBX 4 6 0 0
BITMAP
0420
5760
7070
8080
71D0
5A81
ENDCHAR
STARTCHAR Uogonek
ENCODING 370
SWIDTH 450 0
DWIDTH 4 0
BBX 5 9 0 -3
BITMAP
300400
800A00
801A00
704900
707600
474600
001A00
005330
001620
ENDCHAR
STARTCHAR uogonek
ENCODING 371
SWIDTH 387 0
DWIDTH 3 0
BBX 4 8 0 -3
BITMAP
2020
7070
8080
71D0
5A91
0180
0197
0010
ENDCHAR
STARTCHAR Wcircumflex
ENCODING 372
SWIDTH 878 0
DWIDTH 8 0
BBX 8 11 0 -1
BITMAP
00030000
00077000
00512400
00000004
40024025
71059061
35067170
09162570
09620850
05B00210
00100000
ENDCHAR
STARTCHAR wcircumflex
ENCODING 373
SWIDTH 566 0
DWIDTH 5 0
BBX 5 9 0 0
BITMAP
003000
047300
060600
000000
305030
72B270
295770
0B43A0
053040
ENDCHAR
STARTCHAR Ycircumflex
ENCODING 374
SWIDTH 483 0
DWIDTH 4 0
BBX 5 10 0 0
BITMAP
011000
077100
341600
000410
500600
550700
079300
00A000
017000
043000
ENDCHAR
STARTCHAR ycircumflex
ENCODING 375
SWIDTH 363 0
DWIDTH 3 0
BBX 4 13 0 -4
BITMAP
0300
3740
6051
0000
0031
8161
2771
06B0
00C0
0070
0070
0070
0020
ENDCHAR
STARTCHAR Ydieresis
ENCODING 376
SWIDTH 483 0
DWIDTH 4 0
BBX 5 7 0 0
BITMAP
044510
500600
550700
079300
00A000
017000
043000
ENDCHAR
STARTCHAR Zacute
ENCODING 377
SWIDTH 670 0
DWIDTH 6 0
BBX 6 9 0 0
BITMAP
001200
005100
122220
2446C0
000920
006400
046000
280000
AA9986
ENDCHAR
STARTCHAR zacute
ENCODING 378
SWIDTH 618 0
DWIDTH 6 0
BBX 6 7 0 0
BITMAP
001300
004100
004400
577600
009000
035012
089884
ENDCHAR
STARTCHAR Zdotaccent
ENCODING 379
SWIDTH 670 0
DWIDTH 6 0
BBX 6 8 0 0
BITMAP
002200
122220
2446C0
000920
006400
046000
280000
AA9986
ENDCHAR
STARTCHAR zdotaccent
ENCODING 380
SWIDTH 618 0
DWIDTH 6 0
BBX 6 6 0 0
BITMAP
003000
004400
577600
009000
035012
089884
ENDCHAR
STARTCHAR Zcaron
ENCODING 381
SWIDTH 670 0
DWIDTH 6 0
BBX 6 9 0 0
BITMAP
010000
006440
124420
2446C0
000920
006400
046000
280000
AA9986
ENDCHAR
STARTCHAR zcaron
ENCODING 382
SWIDTH 618 0
DWIDTH 6 0
BBX 6 7 0 0
BITMAP
010000
052600
008400
577600
009000
035012
089884
ENDCHAR
STARTCHAR florin
ENCODING 402
SWIDTH 345 0
DWIDTH 3 0
BBX 3 11 0 -3
BITMAP
0A50
1810
2600
2770
6810
1600
1700
0800
0900
4800
3100
ENDCHAR
STARTCHAR AEacute
ENCODING 508
SWIDTH 708 0
DWIDTH 6 0
BBX 7 9 0 0
BITMAP
00310000
00600000
15304300
4B693000
56820100
71B76100
85D60110
81655600
50293000
ENDCHAR
STARTCHAR aeacute
ENCODING 509
SWIDTH 705 0
DWIDTH 6 0
BBX 7 7 0 0
BITMAP
00040000
00150000
06989400
37BA7100
84E50410
79722800
A2475000
ENDCHAR
STARTCHAR Oslashacute
ENCODING 510
SWIDTH 382 0
DWIDTH 3 0
BBX 4 9 0 -1
BITMAP
0030
0350
09C1
5394
7554
7652
7680
7A30
4000
ENDCHAR
STARTCHAR oslashacute
ENCODING 511
SWIDTH 266 0
DWIDTH 2 0
BBX 3 8 0 -1
BITMAP
0400
1510
6A20
6830
7930
B710
A700
4000
ENDCHAR
STARTCHAR Scommaaccent
ENCODING 536
SWIDTH 541 0
DWIDTH 5 0
BBX 5 10 0 -3
BITMAP
005500
171100
700000
700000
255630
000550
067200
001000
008000
005000
ENDCHAR
STARTCHAR scommaaccent
ENCODING 537
SWIDTH 366 0
DWIDTH 3 0
BBX 4 8 0 -3
BITMAP
0450
6300
8470
3481
0750
0200
0800
0500
ENDCHAR
STARTCHAR circumflex
ENCODING 710
SWIDTH 390 0
DWIDTH 4 0
BBX 4 3 0 6
BITMAP
0300
1860
6043
ENDCHAR
STARTCHAR caron
ENCODING 711
SWIDTH 390 0
DWIDTH 4 0
BBX 4 3 0 5
BITMAP
1000
2452
0310
ENDCHAR
STARTCHAR breve
ENCODING 728
SWIDTH 390 0
DWIDTH 4 0
BBX 3 2 0 5
BITMAP
2150
0730
ENDCHAR
STARTCHAR dotaccent
ENCODING 729
SWIDTH 128 0
DWIDTH 1 0
BBX 1 1 0 5
BITMAP
40
ENDCHAR
STARTCHAR ring
ENCODING 730
SWIDTH 266 0
DWIDTH 2 0
BBX 3 3 0 4
BITMAP
0100
8820
4500
ENDCHAR
STARTCHAR ogonek
ENCODING 731
SWIDTH 366 0
DWIDTH 3 0
BBX 3 4 0 -3
BITMAP
0100
0800
1860
0210
ENDCHAR
STARTCHAR tilde
ENCODING 732
SWIDTH 458 0
DWIDTH 4 0
BBX 4 2 0 5
BITMAP
1602
53A6
ENDCHAR
STARTCHAR hungarumlaut
ENCODING 733
SWIDTH 239 0
DWIDTH 2 0
BBX 2 2 0 4
BITMAP
33
57
ENDCHAR
STARTCHAR Wgrave
ENCODING 7808
SWIDTH 878 0
DWIDTH 8 0
BBX 8 10 0 -1
BITMAP
00031000
00014000
00000004
40024025
71059061
35067170
09162570
09620850
05B00210
00100000
ENDCHAR
STARTCHAR wgrave
ENCODING 7809
SWIDTH 566 0
DWIDTH 5 0
BBX 5 7 0 0
BITMAP
004000
005000
305030
72B270
295770
0B43A0
053040
ENDCHAR
STARTCHAR Wacute
ENCODING 7810
SWIDTH 878 0
DWIDTH 8 0
BBX 8 10 0 -1
BITMAP
00021000
00060000
00000004
40024025
71059061
35067170
09162570
09620850
05B00210
00100000
ENDCHAR
STARTCHAR wacute
ENCODING 7811
SWIDTH 566 0
DWIDTH 5 0
BBX 5 7 0 0
BITMAP
002200
005000
305030
72B270
295770
0B43A0
053040
ENDCHAR
STARTCHAR Wdieresis
ENCODING 7812
SWIDTH 878 0
DWIDTH 8 0
BBX 8 9 0 -1
BITMAP
00044000
00000004
40024025
71059061
35067170
09162570
09620850
05B00210
00100000
ENDCHAR
STARTCHAR wdieresis
ENCODING 7813
SWIDTH 566 0
DWIDTH 5 0
BBX 5 7 0 0
BITMAP
023300
000000
305030
72B270
295770
0B43A0
053040
ENDCHAR
STARTCHAR Ygrave
ENCODING 7922
SWIDTH 483 0
DWIDTH 4 0
BBX 5 9 0 0
BITMAP
032000
004000
000410
500600
550700
079300
00A000
017000
043000
ENDCHAR
STARTCHAR ygrave
ENCODING 7923
SWIDTH 363 0
DWIDTH 3 0
BBX 4 11 0 -4
BITMAP
0400
0500
0031
8161
2771
06B0
00C0
0070
0070
0070
0020
ENDCHAR
STARTCHAR endash
ENCODING 8211
SWIDTH 399 0
DWIDTH 4 0
BBX 4 2 0 1
BITMAP
1683
4200
ENDCHAR
STARTCHAR emdash
ENCODING 8212
SWIDTH 549 0
DWIDTH 5 0
BBX 5 2 0 1
BITMAP
137830
431000
ENDCHAR
STARTCHAR quoteleft
ENCODING 8216
SWIDTH 155 0
DWIDTH 1 0
BBX 1 3 0 3
BITMAP
40
80
50
ENDCHAR
STARTCHAR quoteright
ENCODING 8217
SWIDTH 155 0
DWIDTH 1 0
BBX 1 3 0 3
BITMAP
40
80
50
ENDCHAR
STARTCHAR quotesinglbase
ENCODING 8218
SWIDTH 155 0
DWIDTH 1 0
BBX 1 3 0 0
BITMAP
30
80
60
ENDCHAR
STARTCHAR quotedblleft
ENCODING 8220
SWIDTH 212 0
DWIDTH 2 0
BBX 2 3 0 4
BITMAP
65
65
21
ENDCHAR
STARTCHAR quotedblright
ENCODING 8221
SWIDTH 212 0
DWIDTH 2 0
BBX 2 3 0 4
BITMAP
65
65
21
ENDCHAR
STARTCHAR quotedblbase
ENCODING 8222
SWIDTH 212 0
DWIDTH 2 0
BBX 2 3 0 0
BITMAP
32
65
54
ENDCHAR
STARTCHAR dagger
ENCODING 8224
SWIDTH 268 0
DWIDTH 2 0
BBX 4 8 -1 -1
BITMAP
0510
0700
1A93
2A00
0710
0610
0520
0100
ENDCHAR
STARTCHAR daggerdbl
ENCODING 8225
SWIDTH 326 0
DWIDTH 3 0
BBX 3 8 0 -1
BITMAP
0600
0700
4C70
6A70
5800
0700
0700
0100
ENDCHAR
STARTCHAR bullet
ENCODING 8226
SWIDTH 189 0
DWIDTH 2 0
BBX 2 2 0 2
BITMAP
11
85
ENDCHAR
STARTCHAR ellipsis
ENCODING 8230
SWIDTH 387 0
DWIDTH 3 0
BBX 4 1 0 0
BITMAP
4431
ENDCHAR
STARTCHAR guilsinglleft
ENCODING 8249
SWIDTH 409 0
DWIDTH 4 0
BBX 4 5 0 1
BITMAP
0014
0291
4600
3920
0173
ENDCHAR
STARTCHAR guilsinglright
ENCODING 8250
SWIDTH 450 0
DWIDTH 4 0
BBX 4 5 0 1
BITMAP
5700
0283
0044
0660
5400
ENDCHAR
STARTCHAR fraction
ENCODING 8260
SWIDTH 306 0
DWIDTH 3 0
BBX 3 8 0 -1
BITMAP
0020
0240
0600
0600
1500
5100
6000
4000
ENDCHAR
STARTCHAR Euro
ENCODING 8364
SWIDTH 589 0
DWIDTH 5 0
BBX 5 8 0 -1
BITMAP
002700
007110
052000
5B6100
096300
580050
067850
001000
ENDCHAR
STARTCHAR trademark
ENCODING 8482
SWIDTH 1278 0
DWIDTH 12 0
BBX 12 7 0 0
BITMAP
001237700160
678945930560
001602480660
000701553560
00070170B160
000801800070
000700900062
ENDCHAR
STARTCHAR minus
ENCODING 8722
SWIDTH 358 0
DWIDTH 3 0
BBX 3 1 0 2
BITMAP
3670
ENDCHAR
STARTCHAR commaaccent
ENCODING 63171
SWIDTH 450 0
DWIDTH 4 0
BBX 2 2 1 -3
BITMAP
62
50
ENDCHAR
STARTCHAR fi
ENCODING 64257
SWIDTH 409 0
DWIDTH 4 0
BBX 4 8 0 0
BITMAP
0A50
1840
2600
2793
6973
1643
0843
0743
ENDCHAR
STARTCHAR fl
ENCODING 64258
SWIDTH 416 0
DWIDTH 4 0
BBX 4 8 0 0
BITMAP
0A70
1862
2633
2784
6935
1615
0816
0726
ENDCHAR
STARTCHAR .notdef
ENCODING -1
SWIDTH 450 0
DWIDTH 4 0
BBX 1 1 0 0
BITMAP
00
ENDCHAR
STARTCHAR .null
ENCODING -1
SWIDTH 0 0
DWIDTH 0 0
BBX 1 1 0 0
BITMAP
00
ENDCHAR
STARTCHAR nonmarkingreturn
ENCODING -1
SWIDTH 450 0
DWIDTH 4 0
BBX 1 1 0 0
BITMAP
00
ENDCHAR
ENDFONT
